<svg width="71" height="71" viewBox="0 0 71 71" fill="none" xmlns="http://www.w3.org/2000/svg">
<path d="M66.9691 17.8275L68.1826 16.614C70.6565 14.1167 70.6565 10.0793 68.1826 7.58194L62.4649 1.86415C59.9677 -0.609682 55.9302 -0.633058 53.4328 1.86415L52.2193 3.07773L51.0057 1.86415C48.5085 -0.609682 44.471 -0.609682 41.9737 1.86415L38.1462 5.69159C35.649 8.1888 35.649 12.2262 38.1462 14.7236L41.7403 18.3177L18.3089 41.7491L14.7148 38.155C12.2176 35.6812 8.18017 35.6578 5.68282 38.155L1.85538 41.9825C-0.618458 44.4797 -0.618458 48.5171 1.85538 51.0145L3.06895 52.228L1.85538 53.4416C-0.618458 55.9388 -0.618458 59.9763 1.85538 62.4736L7.57316 68.1914C8.81004 69.4283 10.4438 70.0585 12.0774 70.0585C13.711 70.0585 15.3447 69.4283 16.5816 68.1914L17.7952 66.9778L19.0087 68.1914C20.2456 69.4283 21.8794 70.0585 23.5129 70.0585C25.1465 70.0585 26.7803 69.4283 28.0171 68.1914L31.8446 64.364C34.3418 61.8668 34.3418 57.8293 31.8446 55.332L28.2505 51.7379L51.6819 28.3065L55.276 31.9006C56.5129 33.1374 58.1466 33.7676 59.7802 33.7676C61.4138 33.7676 63.0475 33.1375 64.2844 31.9006L68.1118 28.0731C70.5857 25.5759 70.5857 21.5385 68.1118 19.0411L66.8983 17.8275H66.9691ZM13.3617 64.8539C12.6849 65.5307 11.6114 65.5307 10.9346 64.8539L5.2168 59.1361C4.54 58.4593 4.54 57.3857 5.2168 56.7089L6.43038 55.4954L14.5752 63.6402L13.3617 64.8539ZM28.6252 61.0265L24.7978 64.8539C24.121 65.5307 23.0474 65.5307 22.3706 64.8539L5.1938 47.6771C4.517 47.0003 4.517 45.9267 5.1938 45.2499L9.02124 41.4225C9.34797 41.0958 9.79136 40.9324 10.2348 40.9324C10.6783 40.9324 11.1217 41.0958 11.4484 41.4225L28.6252 58.5993C29.302 59.2761 29.302 60.3497 28.6252 61.0265ZM25.0311 48.4008L21.6472 45.0168L45.0786 21.5854L48.4626 24.9693L25.0311 48.4008ZM64.8925 24.7595L61.0651 28.5869C60.3883 29.2637 59.3147 29.2637 58.6379 28.5869L41.4611 11.4101C40.7843 10.7333 40.7843 9.65973 41.4611 8.98297L45.2886 5.15553C45.6153 4.82879 46.0587 4.66543 46.5022 4.66543C46.9456 4.66543 47.389 4.82879 47.7157 5.15553L64.8925 22.3323C65.5693 23.0091 65.5693 24.0827 64.8925 24.7595ZM64.8925 13.3003L63.679 14.5139L55.5342 6.3691L56.7477 5.15553C57.4246 4.47872 58.4981 4.47872 59.1749 5.15553L64.8927 10.8733C65.5695 11.5501 65.5693 12.6236 64.8925 13.3003Z" fill="#FD4C00"/>
<path d="M54.4599 51.1312C53.5497 50.2209 52.0794 50.2209 51.1693 51.1312C50.2591 52.0414 50.259 53.5116 51.1693 54.4218L56.0003 59.2761C56.467 59.7429 57.0505 59.9529 57.6573 59.9529C58.2642 59.9529 58.8476 59.7195 59.3144 59.2761C60.2246 58.3659 60.2246 56.8956 59.3144 55.9855L54.4833 51.1312H54.4599Z" fill="#FD4C00"/>
<path d="M61.8818 43.1731H55.0438C53.7601 43.1731 52.7099 44.2233 52.7099 45.5069C52.7099 46.7905 53.7601 47.8407 55.0438 47.8407H61.8818C63.1654 47.8407 64.2156 46.7905 64.2156 45.5069C64.2156 44.2233 63.1654 43.1731 61.8818 43.1731Z" fill="#FD4C00"/>
<path d="M45.5444 52.671C44.2607 52.671 43.2106 53.7212 43.2106 55.0048V61.8428C43.2106 63.1265 44.2607 64.1766 45.5444 64.1766C46.828 64.1766 47.8782 63.1265 47.8782 61.8428V55.0048C47.8782 53.7212 46.828 52.671 45.5444 52.671Z" fill="#FD4C00"/>
<path d="M15.6254 18.8777C16.0921 19.3444 16.6755 19.5545 17.2824 19.5545C17.8893 19.5545 18.4727 19.3211 18.9394 18.8777C19.8497 17.9674 19.8497 16.4972 18.9394 15.587L14.1084 10.7327C13.1982 9.82249 11.7279 9.82249 10.8178 10.7327C9.90765 11.6429 9.90758 13.1132 10.8178 14.0233L15.6488 18.8777H15.6254Z" fill="#FD4C00"/>
<path d="M8.20348 26.8357H15.0415C16.3251 26.8357 17.3753 25.7855 17.3753 24.5019C17.3753 23.2183 16.3251 22.1681 15.0415 22.1681H8.20348C6.91985 22.1681 5.86967 23.2183 5.86967 24.5019C5.86967 25.7855 6.91985 26.8357 8.20348 26.8357Z" fill="#FD4C00"/>
<path d="M24.5409 17.3375C25.8245 17.3375 26.8747 16.2874 26.8747 15.0037V8.16571C26.8747 6.88208 25.8245 5.83191 24.5409 5.83191C23.2572 5.83191 22.2071 6.88208 22.2071 8.16571V15.0037C22.2071 16.2874 23.2572 17.3375 24.5409 17.3375Z" fill="#FD4C00"/>
</svg>
